<?xml version="1.0" encoding="UTF-8" standalone="no"?><!DOCTYPE svg PUBLIC "-//W3C//DTD SVG 1.1//EN" "http://www.w3.org/Graphics/SVG/1.1/DTD/svg11.dtd"><svg width="100%" height="100%" viewBox="0 0 12000 1334" version="1.1" xmlns="http://www.w3.org/2000/svg" xmlns:xlink="http://www.w3.org/1999/xlink" xml:space="preserve" xmlns:serif="http://www.serif.com/" style="fill-rule:evenodd;clip-rule:evenodd;stroke-linejoin:round;stroke-miterlimit:2;"><path d="M1229.186,963.243c0,-115.112 93.456,-208.568 208.568,-208.568l936.24,0c115.112,0 208.568,93.456 208.568,208.568c0,115.112 -93.456,208.568 -208.568,208.568l-936.24,-0c-115.112,0 -208.568,-93.456 -208.568,-208.568Z" style="fill:url(#_Linear1);"/><path d="M7462.501,963.243c0,-115.112 93.456,-208.568 208.568,-208.568l936.24,0c115.112,0 208.568,93.456 208.568,208.568c0,115.112 -93.456,208.568 -208.568,208.568l-936.24,-0c-115.112,0 -208.568,-93.456 -208.568,-208.568Z" style="fill:url(#_Linear2);"/><defs><linearGradient id="_Linear1" x1="0" y1="0" x2="1" y2="0" gradientUnits="userSpaceOnUse" gradientTransform="matrix(-1353.377156,-0,0,-417.136795,2582.563311,963.243265)"><stop offset="0" style="stop-color:#fff;stop-opacity:0.4"/><stop offset="1" style="stop-color:#fff;stop-opacity:1"/></linearGradient><linearGradient id="_Linear2" x1="0" y1="0" x2="1" y2="0" gradientUnits="userSpaceOnUse" gradientTransform="matrix(-1353.377156,-0,0,-417.136795,8815.877971,963.243265)"><stop offset="0" style="stop-color:#fff;stop-opacity:0.4"/><stop offset="1" style="stop-color:#fff;stop-opacity:1"/></linearGradient></defs></svg>