<?xml version="1.0" encoding="UTF-8" standalone="no"?><!DOCTYPE svg PUBLIC "-//W3C//DTD SVG 1.1//EN" "http://www.w3.org/Graphics/SVG/1.1/DTD/svg11.dtd"><svg width="100%" height="100%" viewBox="0 0 12000 1334" version="1.1" xmlns="http://www.w3.org/2000/svg" xmlns:xlink="http://www.w3.org/1999/xlink" xml:space="preserve" xmlns:serif="http://www.serif.com/" style="fill-rule:evenodd;clip-rule:evenodd;stroke-linejoin:round;stroke-miterlimit:2;"><path d="M72.965,414.094c0,-139.399 113.174,-252.572 252.572,-252.572l1133.77,-0c139.399,0 252.572,113.174 252.572,252.572c0,139.399 -113.174,252.572 -252.572,252.572l-1133.77,0c-139.399,0 -252.572,-113.174 -252.572,-252.572Z" style="fill:url(#_Linear1);"/><path d="M6072.965,414.094c0,-139.399 113.174,-252.572 252.572,-252.572l1133.77,-0c139.399,0 252.572,113.174 252.572,252.572c0,139.399 -113.174,252.572 -252.572,252.572l-1133.77,0c-139.399,0 -252.572,-113.174 -252.572,-252.572Z" style="fill:url(#_Linear2);"/><defs><linearGradient id="_Linear1" x1="0" y1="0" x2="1" y2="0" gradientUnits="userSpaceOnUse" gradientTransform="matrix(-1638.914874,0,-0,-505.144995,1711.880262,414.094169)"><stop offset="0" style="stop-color:#fff;stop-opacity:0.4"/><stop offset="1" style="stop-color:#fff;stop-opacity:1"/></linearGradient><linearGradient id="_Linear2" x1="0" y1="0" x2="1" y2="0" gradientUnits="userSpaceOnUse" gradientTransform="matrix(-1638.914874,0,-0,-505.144995,7711.880262,414.094169)"><stop offset="0" style="stop-color:#fff;stop-opacity:0.4"/><stop offset="1" style="stop-color:#fff;stop-opacity:1"/></linearGradient></defs></svg>