<?xml version="1.0" encoding="UTF-8" standalone="no"?><!DOCTYPE svg PUBLIC "-//W3C//DTD SVG 1.1//EN" "http://www.w3.org/Graphics/SVG/1.1/DTD/svg11.dtd"><svg width="100%" height="100%" viewBox="0 0 12000 1334" version="1.1" xmlns="http://www.w3.org/2000/svg" xmlns:xlink="http://www.w3.org/1999/xlink" xml:space="preserve" xmlns:serif="http://www.serif.com/" style="fill-rule:evenodd;clip-rule:evenodd;stroke-linejoin:round;stroke-miterlimit:2;"><path d="M4866.23,642.714c0,-81.37 66.062,-147.433 147.433,-147.433l661.81,0c81.37,0 147.433,66.062 147.433,147.433c0,81.37 -66.062,147.433 -147.433,147.433l-661.81,-0c-81.37,0 -147.433,-66.062 -147.433,-147.433Z" style="fill:url(#_Linear1);"/><path d="M10852.134,642.714c0,-81.37 66.062,-147.433 147.433,-147.433l661.81,0c81.37,0 147.433,66.062 147.433,147.433c0,81.37 -66.062,147.433 -147.433,147.433l-661.81,0c-81.37,0 -147.433,-66.062 -147.433,-147.433Z" style="fill:url(#_Linear2);"/><defs><linearGradient id="_Linear1" x1="0" y1="0" x2="1" y2="0" gradientUnits="userSpaceOnUse" gradientTransform="matrix(-956.675321,-0,0,-294.865681,5822.905443,642.713714)"><stop offset="0" style="stop-color:#fff;stop-opacity:0.4"/><stop offset="1" style="stop-color:#fff;stop-opacity:1"/></linearGradient><linearGradient id="_Linear2" x1="0" y1="0" x2="1" y2="0" gradientUnits="userSpaceOnUse" gradientTransform="matrix(-956.675321,-0,0,-294.865681,11808.809649,642.713714)"><stop offset="0" style="stop-color:#fff;stop-opacity:0.4"/><stop offset="1" style="stop-color:#fff;stop-opacity:1"/></linearGradient></defs></svg>