<?xml version="1.0" encoding="UTF-8" standalone="no"?><!DOCTYPE svg PUBLIC "-//W3C//DTD SVG 1.1//EN" "http://www.w3.org/Graphics/SVG/1.1/DTD/svg11.dtd"><svg width="100%" height="100%" viewBox="0 0 12000 1334" version="1.1" xmlns="http://www.w3.org/2000/svg" xmlns:xlink="http://www.w3.org/1999/xlink" xml:space="preserve" xmlns:serif="http://www.serif.com/" style="fill-rule:evenodd;clip-rule:evenodd;stroke-linejoin:round;stroke-miterlimit:2;"><path d="M0,933.333c0,0 314.312,-104.975 514.312,-62.058c200,42.917 672.965,230 1072.965,250.833c400,20.833 553.04,-32.059 953.04,-122.475c400,-88.75 659.682,-199.632 1059.682,-155.049c400,42.917 794.387,346.495 1194.387,345.245c400,1.25 553.04,-38.53 820.393,-91.986l385.22,-161.764l0,397.256l-6000,0l0,-400Z" style="fill-rule:nonzero;"/><path d="M6000,933.333c0,0 314.312,-104.975 514.312,-62.058c200,42.917 672.965,230 1072.965,250.833c400,20.833 553.04,-32.059 953.04,-122.475c400,-88.75 659.682,-199.632 1059.682,-155.049c400,42.917 794.387,346.495 1194.387,345.245c400,1.25 547.428,-16.079 820.393,-91.986l385.22,-161.764l0,397.256l-6000,0l0,-400Z" style="fill-rule:nonzero;"/></svg>