<?xml version="1.0" encoding="UTF-8" standalone="no"?><!DOCTYPE svg PUBLIC "-//W3C//DTD SVG 1.1//EN" "http://www.w3.org/Graphics/SVG/1.1/DTD/svg11.dtd"><svg width="100%" height="100%" viewBox="0 0 12000 1334" version="1.1" xmlns="http://www.w3.org/2000/svg" xmlns:xlink="http://www.w3.org/1999/xlink" xml:space="preserve" xmlns:serif="http://www.serif.com/" style="fill-rule:evenodd;clip-rule:evenodd;stroke-linejoin:round;stroke-miterlimit:2;"><path d="M0,950.109c0,0 478.017,-565.135 1020.393,-660.992c264.418,-46.732 520.674,783.602 720.674,807.352c200,22.083 647.615,-1112.248 1032.18,-1096.47c384.565,15.778 785.875,1124.461 1123.667,1191.138c337.792,66.677 703.087,-881.492 903.087,-791.075c200,88.75 559.963,707.265 759.963,707.265c200,0 440.037,-157.219 440.037,-157.219l0,383.224l-6000,0l0,-383.224Z" style="fill:#7dffaa;fill-rule:nonzero;"/><path d="M6000,950.272c0,0 478.017,-565.135 1020.393,-660.992c264.418,-46.732 520.674,783.602 720.674,807.352c200,22.083 647.615,-1112.248 1032.18,-1096.47c384.565,15.778 785.875,1124.461 1123.667,1191.138c337.792,66.677 703.087,-881.492 903.087,-791.075c200,88.75 559.963,707.265 759.963,707.265c200,0 440.037,-157.219 440.037,-157.219l0,383.224l-6000,0l0,-383.224Z" style="fill:#7dffaa;fill-rule:nonzero;"/></svg>