<?xml version="1.0" encoding="UTF-8" standalone="no"?><!DOCTYPE svg PUBLIC "-//W3C//DTD SVG 1.1//EN" "http://www.w3.org/Graphics/SVG/1.1/DTD/svg11.dtd"><svg width="100%" height="100%" viewBox="0 0 12000 3496" version="1.1" xmlns="http://www.w3.org/2000/svg" xmlns:xlink="http://www.w3.org/1999/xlink" xml:space="preserve" xmlns:serif="http://www.serif.com/" style="fill-rule:evenodd;clip-rule:evenodd;stroke-linejoin:round;stroke-miterlimit:2;"><path d="M0,3495.833l0,-310.391c21.115,-6.432 439.631,-678.683 681.271,-716.306c250.78,-39.047 534.138,600.054 706.053,523.199c357.578,-159.857 465.529,-1494.221 798.862,-1574.115c333.333,-79.894 379.341,1771.22 813.814,1767.222c340.177,-3.131 728.992,-877.574 1072.279,-851.707c343.287,25.867 1058.828,1025.539 1419.622,1006.91c315.935,-16.313 401.577,-72.281 508.098,-155.203c-1.881,137.83 0,310.391 0,310.391l-6000,0Z" style="fill:#9600ff;fill-rule:nonzero;"/><path d="M6000,3495.833l0,-310.391c21.115,-6.432 439.631,-678.683 681.271,-716.306c250.78,-39.047 534.138,600.054 706.053,523.199c357.578,-159.857 465.529,-1494.221 798.862,-1574.115c333.333,-79.894 379.341,1771.22 813.814,1767.222c340.177,-3.131 728.992,-877.574 1072.279,-851.707c343.287,25.867 1058.828,1025.539 1419.622,1006.91c315.935,-16.313 401.577,-72.281 508.098,-155.203c-1.881,137.83 0,310.391 0,310.391l-6000,0Z" style="fill:#9600ff;fill-rule:nonzero;"/></svg>