<?xml version="1.0" encoding="UTF-8" standalone="no"?><!DOCTYPE svg PUBLIC "-//W3C//DTD SVG 1.1//EN" "http://www.w3.org/Graphics/SVG/1.1/DTD/svg11.dtd"><svg width="100%" height="100%" viewBox="0 0 12000 3692" version="1.1" xmlns="http://www.w3.org/2000/svg" xmlns:xlink="http://www.w3.org/1999/xlink" xml:space="preserve" xmlns:serif="http://www.serif.com/" style="fill-rule:evenodd;clip-rule:evenodd;stroke-linejoin:round;stroke-miterlimit:2;"><path d="M0,2415.649c0,0 477.47,-837.676 828.186,-853.967c469.471,-21.807 554.413,1278.498 1255.869,1333.276c583.48,45.565 937.325,-1412.642 1835.765,-1427.837c726.106,-12.281 771.088,1399.753 1289.908,1427.618c333.016,17.886 790.271,-479.091 790.271,-479.091l0,1276.017l-6000,0l0,-1276.017Z" style="fill:#00f5ff;fill-rule:nonzero;"/><path d="M6000,2415.649c0,0 477.47,-837.676 828.186,-853.967c469.471,-21.807 554.413,1278.498 1255.869,1333.276c583.48,45.565 937.325,-1412.642 1835.765,-1427.837c726.106,-12.281 771.088,1399.753 1289.908,1427.618c333.016,17.886 790.271,-479.091 790.271,-479.091l0,1276.017l-6000,0l0,-1276.017Z" style="fill:#00f5ff;fill-rule:nonzero;"/></svg>